HIERARCHY
ROOT root
{
	OFFSET 0.000000 0.000000 0.000000
	CHANNELS 6 Xposition Yposition Zposition Zrotation Yrotation Xrotation
	JOINT lhip
	{
		OFFSET 0.058581 -0.082280 -0.017664
		CHANNELS 3 Zrotation Yrotation Xrotation
		JOINT lknee
		{
			OFFSET 0.043451 -0.386469 0.008037
			CHANNELS 3 Zrotation Yrotation Xrotation
			JOINT lankle
			{
				OFFSET -0.014790 -0.426874 -0.037428
				CHANNELS 3 Zrotation Yrotation Xrotation
				JOINT ltoe
				{
					OFFSET 0.041054 -0.060286 0.122042
					CHANNELS 3 Zrotation Yrotation Xrotation
					End Site
					{
						OFFSET 0.000000 0.000000 0.000000
					}
				}
			}
		}
	}
	JOINT rhip
	{
		OFFSET -0.060310 -0.090513 -0.013543
		CHANNELS 3 Zrotation Yrotation Xrotation
		JOINT rknee
		{
			OFFSET -0.043257 -0.383688 -0.004843
			CHANNELS 3 Zrotation Yrotation Xrotation
			JOINT rankle
			{
				OFFSET 0.019056 -0.420046 -0.034562
				CHANNELS 3 Zrotation Yrotation Xrotation
				JOINT rtoe
				{
					OFFSET -0.034840 -0.062106 0.130323
					CHANNELS 3 Zrotation Yrotation Xrotation
					End Site
					{
						OFFSET 0.000000 0.000000 0.000000
					}
				}
			}
		}
	}
	JOINT lowerback
	{
		OFFSET 0.004439 0.124404 -0.038385
		CHANNELS 3 Zrotation Yrotation Xrotation
		JOINT upperback
		{
			OFFSET 0.004488 0.137956 0.026820
			CHANNELS 3 Zrotation Yrotation Xrotation
			JOINT chest
			{
				OFFSET -0.002265 0.056032 0.002855
				CHANNELS 3 Zrotation Yrotation Xrotation
				JOINT lowerneck
				{
					OFFSET -0.013390 0.211636 -0.033468
					CHANNELS 3 Zrotation Yrotation Xrotation
					JOINT upperneck
					{
						OFFSET 0.010113 0.088937 0.050410
						CHANNELS 3 Zrotation Yrotation Xrotation
						End Site
						{
							OFFSET 0.000000 0.000000 0.000000
						}
					}
				}
				JOINT lclavicle
				{
					OFFSET 0.071702 0.114000 -0.018898
					CHANNELS 3 Zrotation Yrotation Xrotation
					JOINT lshoulder
					{
						OFFSET 0.122921 0.045205 -0.019046
						CHANNELS 3 Zrotation Yrotation Xrotation
						JOINT lelbow
						{
							OFFSET 0.255332 -0.015649 -0.022946
							CHANNELS 3 Zrotation Yrotation Xrotation
							JOINT lwrist
							{
								OFFSET 0.265709 0.012698 -0.007375
								CHANNELS 3 Zrotation Yrotation Xrotation
								End Site
								{
									OFFSET 0.000000 0.000000 0.000000
								}
							}
						}
					}
				}
				JOINT rclavicle
				{
					OFFSET -0.082954 0.112472 -0.023707
					CHANNELS 3 Zrotation Yrotation Xrotation
					JOINT rshoulder
					{
						OFFSET -0.113228 0.046853 -0.008472
						CHANNELS 3 Zrotation Yrotation Xrotation
						JOINT relbow
						{
							OFFSET -0.260127 -0.014369 -0.031269
							CHANNELS 3 Zrotation Yrotation Xrotation
							JOINT rwrist
							{
								OFFSET -0.269108 0.006794 -0.006027
								CHANNELS 3 Zrotation Yrotation Xrotation
								End Site
								{
									OFFSET 0.000000 0.000000 0.000000
								}
							}
						}
					}
				}
			}
		}
	}
}
MOTION
Frames: 17
Frame Time: 0.033333
-0.299298 0.010273 0.857194 177.656272 -0.825703 92.790051 2.466611 -9.863587 -44.795666 -0.717256 15.670912 60.652655 11.323745 21.262751 -30.641539 0.000000 -0.000000 0.000000 -9.600450 5.502895 -48.996228 -0.523618 -7.183143 102.543796 7.424269 -7.215889 -12.950429 0.000000 -0.000000 0.000000 -1.562636 0.198396 46.763814 1.052240 -0.515007 -9.868107 0.525570 -1.366817 3.746267 -0.104447 2.113292 -10.794086 3.039367 3.375788 0.532342 -29.629921 -11.880387 3.631170 -46.121204 -7.499023 8.847296 15.007192 -42.208957 -11.431201 3.421347 -6.570281 -11.602290 25.512303 13.856415 1.585614 48.759023 6.984091 14.957101 -23.360590 41.873442 -17.666314 6.768777 6.118217 -8.119447 
-0.297218 -0.012340 0.858924 177.300329 -1.515046 93.584982 3.051761 -10.166964 -46.511273 -1.180126 16.523883 58.750717 11.520018 20.925039 -28.681491 0.000000 -0.000000 0.000000 -9.340849 4.929810 -45.832365 0.466061 -6.695502 102.179079 7.119876 -7.158300 -11.329666 0.000000 -0.000000 0.000000 -1.983650 1.043182 45.915997 1.180745 -1.177848 -9.557044 0.544143 -1.392282 3.713386 -0.291107 2.147072 -11.011349 3.153299 3.399699 0.621494 -29.504244 -11.851913 3.482244 -46.200256 -7.477266 8.871761 15.201616 -42.475717 -11.671790 3.752212 -6.434373 -12.028809 25.398263 13.606297 1.397278 48.839724 6.865521 15.100762 -23.491516 42.467524 -17.672953 6.843676 6.114438 -8.201167 
-0.294415 -0.035039 0.860354 176.827623 -2.088489 94.209429 3.654821 -10.014797 -47.999368 -1.719165 17.214431 56.972791 11.107306 20.413484 -27.341869 0.000000 -0.000000 0.000000 -8.651910 4.440125 -42.806568 0.980279 -5.966835 100.664584 7.008428 -6.971460 -11.629665 0.000000 -0.000000 0.000000 -2.331270 1.925272 45.144625 1.215330 -1.727877 -9.156218 0.563946 -1.372496 3.632846 -0.414509 2.342588 -11.133313 3.233438 3.208175 0.752457 -29.547519 -11.889100 3.322378 -46.048338 -7.432509 8.895405 15.150184 -42.664537 -11.602181 4.066271 -6.350552 -12.484011 25.511740 13.477265 1.355366 48.668923 6.622978 15.092293 -23.547341 43.096569 -17.528784 6.721878 6.207438 -8.398966 
-0.290906 -0.058084 0.861245 176.308725 -2.402000 94.779318 4.400361 -9.475948 -49.489399 -2.131797 17.758487 55.461901 10.293546 19.715537 -26.358460 0.000000 -0.000000 0.000000 -7.569699 4.165306 -40.228686 1.196390 -5.276521 98.236360 6.987317 -6.535223 -11.656307 0.000000 -0.000000 0.000000 -2.559462 2.582433 44.376084 1.183841 -2.110328 -8.832073 0.586204 -1.291239 3.563928 -0.582820 2.574065 -11.171957 3.309631 3.093309 1.132949 -29.584045 -11.848802 3.112009 -46.005259 -7.310644 8.883879 15.049188 -42.741163 -11.366128 4.222643 -6.313158 -12.666585 25.493540 13.366682 1.318222 48.613466 6.507422 15.014827 -23.187245 43.433690 -16.853122 6.452212 6.318964 -8.563049 
-0.286929 -0.081441 0.861478 176.064637 -2.789766 95.175910 4.983607 -9.202545 -50.831463 -2.412784 18.184156 53.928929 9.506517 18.753433 -24.794709 0.000000 -0.000000 0.000000 -6.512619 3.852606 -37.706416 0.960760 -4.869830 94.557481 6.771776 -6.356085 -13.107067 0.000000 -0.000000 0.000000 -2.803200 3.146755 43.830635 1.236699 -2.658906 -8.522628 0.700270 -1.287349 3.351616 -0.814654 2.707240 -10.991058 3.449716 3.147721 1.222444 -29.657772 -11.741128 3.040837 -46.026909 -7.072327 8.919587 15.152704 -42.922045 -11.248116 4.194452 -6.240864 -12.813947 25.435471 13.293327 1.302123 48.557947 6.391370 14.887910 -22.799371 43.753095 -16.124263 6.269423 6.376991 -8.567875 
-0.282538 -0.105264 0.860921 176.109752 -3.230458 95.194180 5.287507 -9.086814 -51.854915 -2.656248 18.305805 52.404732 8.601617 17.794989 -22.534720 0.000000 -0.000000 0.000000 -5.593977 3.586583 -34.690632 0.203803 -5.070767 89.742862 6.669797 -6.975912 -19.516119 0.000000 -0.000000 0.000000 -2.924048 3.637329 43.625616 1.243125 -3.296633 -8.104502 0.863080 -1.329796 2.997856 -0.893426 2.784321 -10.750686 3.608547 3.148357 1.254753 -29.824872 -11.826884 2.997951 -45.905434 -6.705341 9.142479 15.300751 -43.064999 -11.307120 4.439034 -6.056089 -13.201604 25.508113 13.445557 1.289782 48.393336 5.948181 14.679532 -22.765773 44.217174 -16.040098 5.826158 6.495705 -8.392155 
-0.276997 -0.129474 0.859212 176.115618 -3.278747 94.816623 4.622501 -7.601088 -52.612003 -2.621792 16.921797 51.480493 8.388038 16.629883 -19.938804 0.000000 -0.000000 0.000000 -3.498120 2.777263 -31.493389 -0.573523 -4.194692 85.222247 5.197246 -8.252457 -28.215036 0.000000 -0.000000 0.000000 -2.631613 4.103248 43.472189 1.444616 -3.621484 -7.695265 0.546915 -1.359050 3.479810 -0.316182 5.080162 -11.735655 2.893582 0.775124 1.961001 -29.581428 -11.331697 2.552174 -45.702971 -7.529924 9.281868 13.748195 -42.921762 -9.512743 6.273832 -5.858681 -14.543545 25.851759 12.886178 1.160533 48.118251 6.614682 14.564662 -22.453176 44.274776 -14.059474 5.112571 7.088683 -9.620458 
-0.271309 -0.154311 0.856991 176.262598 -3.429273 94.549152 4.623390 -6.941243 -53.571602 -2.400401 16.449188 50.353032 7.713164 15.724642 -16.932132 0.000000 -0.000000 0.000000 -1.933580 2.398990 -29.450384 -1.791467 -3.861728 81.052993 3.937206 -9.893086 -35.510061 0.000000 -0.000000 0.000000 -2.535682 4.307412 43.356308 1.437979 -3.884066 -7.645564 0.534903 -1.378104 3.752578 -0.166636 6.194878 -11.905720 2.783450 -0.286091 2.355113 -29.358410 -11.079847 2.605144 -45.994549 -7.729780 9.207602 13.578450 -43.033798 -8.761402 6.500837 -5.604529 -15.288161 25.702599 12.873722 1.294494 48.234488 6.667872 14.353322 -22.295213 44.432155 -12.873370 4.664579 7.273708 -10.491394 
-0.265754 -0.180173 0.855290 176.437416 -3.608881 94.280232 4.851329 -6.744839 -54.424304 -1.951922 16.347694 48.817593 6.950607 14.910072 -13.095738 0.000000 -0.000000 0.000000 -1.022527 2.548755 -29.072451 -2.624023 -4.086832 78.414567 2.898566 -11.418334 -39.754715 0.000000 -0.000000 0.000000 -2.577107 4.328830 43.603544 1.367072 -3.960595 -7.662036 0.651731 -1.404349 3.719518 -0.277494 6.606362 -12.020202 2.958977 -0.650803 2.451591 -29.353656 -10.933728 2.770278 -46.143032 -7.713749 9.161732 13.788251 -43.273695 -8.780876 6.390602 -5.448612 -15.757610 25.620748 13.003201 1.482590 48.199266 6.626180 14.202117 -22.434154 44.774403 -12.601421 4.383198 7.256211 -10.915834 
-0.260352 -0.206559 0.855238 176.717495 -3.568471 93.675636 5.128349 -6.613250 -54.743664 -1.649758 15.997061 46.846876 5.972521 14.076895 -8.790306 0.000000 -0.000000 0.000000 -0.378405 3.088466 -29.687620 -3.083608 -4.290128 77.294750 2.017883 -11.982720 -41.076674 0.000000 -0.000000 0.000000 -2.358174 4.071617 44.459774 1.280024 -3.840810 -7.634399 0.700874 -1.404367 3.462478 -0.520371 6.784923 -12.119769 3.223688 -0.886838 2.446501 -29.623254 -11.115718 2.930395 -46.044467 -7.669038 9.193100 14.116703 -43.094824 -9.336765 6.296750 -5.466935 -15.848528 25.632223 13.326924 1.736299 47.983051 6.586050 14.083194 -22.623088 44.934857 -12.546406 3.970091 7.453179 -11.141784 
-0.254925 -0.233247 0.856862 177.331973 -3.260188 92.915645 5.500497 -6.378356 -54.652054 -1.862907 14.865373 44.248235 4.584769 12.916738 -4.009297 0.000000 -0.000000 0.000000 0.123200 3.535352 -30.684618 -3.274923 -5.083000 76.670121 1.164990 -12.363209 -41.048893 0.000000 -0.000000 0.000000 -1.966031 3.430680 45.526553 1.281161 -3.663439 -7.506862 0.733552 -1.387126 3.114013 -0.773045 6.931564 -12.045787 3.472774 -1.023157 2.343401 -29.951666 -11.393488 3.009657 -45.935264 -7.594662 9.278362 14.501719 -42.693468 -10.006319 6.272221 -5.339135 -15.577856 25.598628 13.775124 1.960152 47.784767 6.677443 13.919135 -22.718137 45.003129 -12.595527 3.577883 7.386442 -11.329057 
-0.249548 -0.260072 0.859215 178.132273 -3.047151 92.426146 6.097007 -5.733361 -54.946206 -2.639528 13.988920 41.903170 2.258306 11.356062 1.364146 0.000000 -0.000000 0.000000 0.497367 3.234984 -31.719093 -3.870322 -6.293933 75.448482 0.044542 -12.908048 -41.179332 0.000000 -0.000000 0.000000 -1.672873 2.872111 46.115941 1.388859 -3.700982 -7.276037 0.782423 -1.461102 2.851510 -0.888574 7.218986 -11.894802 3.713015 -1.304610 2.461308 -30.053633 -11.453562 3.073677 -46.031336 -7.612947 9.357698 14.740029 -42.365000 -10.198107 6.248414 -5.186197 -15.566032 25.510347 13.953325 2.159643 47.729075 7.048792 13.680327 -22.496812 45.018167 -12.033732 3.300766 7.315503 -11.568491 
-0.244285 -0.286644 0.861752 178.902427 -3.120494 92.367095 6.773089 -4.871321 -55.688361 -3.724621 13.780676 40.035939 -0.799461 10.008913 5.948996 0.000000 -0.000000 0.000000 0.785957 2.690129 -33.039511 -4.598524 -7.177697 73.920020 -1.124155 -13.514807 -41.397610 0.000000 -0.000000 0.000000 -1.699710 2.654154 46.035267 1.575301 -3.830789 -6.992834 0.868978 -1.573210 2.697490 -0.860716 7.533793 -11.767596 3.954594 -1.879731 2.641889 -30.028348 -11.341353 3.120296 -46.161733 -7.689111 9.524964 14.726173 -42.182825 -9.952881 6.018952 -5.172234 -15.683594 25.496396 13.705402 2.347883 47.760122 7.418278 13.469004 -22.370280 45.224020 -11.312933 3.347360 7.261634 -12.066773 
-0.239976 -0.311648 0.864786 179.356696 -3.178128 92.128717 7.369715 -3.941199 -55.935556 -5.119415 13.353850 39.996183 -3.149143 9.157737 4.543818 0.000000 -0.000000 0.000000 0.885615 2.656583 -34.341942 -5.057519 -7.976339 72.818833 -1.469354 -13.659757 -41.193645 0.000000 -0.000000 0.000000 -1.769393 2.445391 46.211179 1.638058 -3.756867 -6.999899 0.892108 -1.566532 2.639175 -0.723756 7.716983 -11.696762 3.960551 -2.368003 2.762362 -30.017959 -11.252355 3.161751 -46.266581 -7.528650 9.558304 14.541440 -42.216646 -9.570041 5.804556 -5.383801 -15.596417 25.478705 13.436130 2.448505 47.874459 7.388785 13.263102 -22.394795 45.570751 -10.946966 3.527580 7.271758 -12.468636 
-0.236671 -0.334896 0.867530 179.653359 -3.014484 91.733187 7.875300 -3.086809 -56.103862 -6.042543 13.117502 43.782908 -3.488457 8.557401 -1.559044 0.000000 -0.000000 0.000000 0.879730 2.662763 -35.461770 -5.210186 -9.040601 71.851595 -1.375735 -13.558577 -40.749029 0.000000 -0.000000 0.000000 -1.723056 2.112035 46.649456 1.708730 -3.624556 -7.321592 0.883122 -1.513955 2.745016 -0.540173 7.642953 -11.628659 3.751552 -2.336118 2.696985 -30.074294 -11.045335 3.279600 -46.361265 -7.191176 9.327007 14.234561 -42.540979 -9.029728 5.861193 -5.544009 -15.618200 25.420953 13.236126 2.426369 47.914627 7.282958 13.024809 -22.135146 45.875047 -10.525322 3.472493 7.296455 -12.527524 
-0.234095 -0.357032 0.869761 179.687640 -2.907270 91.436975 8.532079 -2.516225 -56.297003 -5.791237 13.969404 50.591630 -2.839143 8.437024 -8.110558 0.000000 -0.000000 0.000000 0.956374 2.337971 -36.386977 -5.312018 -9.717850 70.573291 -1.405776 -13.452737 -40.405073 0.000000 -0.000000 0.000000 -1.747837 2.046470 47.015785 1.758875 -3.545630 -7.686960 0.909622 -1.532099 2.933885 -0.319264 7.431750 -11.656090 3.592865 -2.034524 2.486970 -30.070445 -10.802974 3.427150 -46.486703 -6.905889 8.972407 13.799312 -42.756686 -8.252451 5.928692 -5.620092 -15.832282 25.387779 13.019787 2.334812 47.935485 7.277953 12.778990 -21.771988 45.937278 -9.977902 3.546572 7.212179 -12.494724 
-0.232203 -0.378684 0.871693 179.405912 -2.827515 91.379116 9.259078 -2.159169 -56.300369 -4.205688 15.257186 59.082355 -1.823414 9.422495 -12.468084 0.000000 -0.000000 0.000000 1.091748 2.334678 -37.527031 -5.216363 -9.915421 69.343496 -1.603576 -13.523779 -39.711885 0.000000 -0.000000 0.000000 -1.887448 2.158754 47.150169 1.743635 -3.309129 -7.949878 0.939715 -1.554408 3.066005 -0.188431 7.094931 -11.721747 3.561451 -1.631431 2.268394 -30.000282 -10.609795 3.584620 -46.601052 -6.735146 8.651645 13.247925 -42.663468 -7.466507 5.906414 -5.561249 -15.947267 25.405636 12.878642 2.359245 48.000175 7.266072 12.599639 -21.786101 45.788059 -9.932965 3.422307 7.064783 -12.521028 
